<?xml version="1.0" encoding="utf-8"?>
<!-- Generator: Adobe Illustrator 15.1.0, SVG Export Plug-In  -->
<!DOCTYPE svg PUBLIC "-//W3C//DTD SVG 1.1//EN" "http://www.w3.org/Graphics/SVG/1.1/DTD/svg11.dtd" [
	<!ENTITY ns_flows "http://ns.adobe.com/Flows/1.0/">
]>
<svg version="1.1"
	 xmlns="http://www.w3.org/2000/svg" xmlns:xlink="http://www.w3.org/1999/xlink" xmlns:a="http://ns.adobe.com/AdobeSVGViewerExtensions/3.0/"
	 x="0px" y="0px" width="520px" height="520px" viewBox="-6.666 -2.593 520 520" enable-background="new -6.666 -2.593 520 520"
	 xml:space="preserve">
<defs>
</defs>
<g>
	<g>
		<path fill="#BE242A" d="M508.256,254.129c0,140.352-113.775,254.127-254.129,254.127C113.775,508.256,0,394.48,0,254.129
			C0,113.776,113.775,0,254.127,0C394.481,0,508.256,113.776,508.256,254.129z M254.127,20.04
			C124.854,20.04,20.04,124.841,20.04,254.129c0,129.272,104.814,234.088,234.088,234.088c129.289,0,234.09-104.815,234.09-234.088
			C488.217,124.841,383.417,20.04,254.127,20.04z"/>
		<g>
			<rect x="84.912" y="161.764" fill="#BE242A" width="13.655" height="249.678"/>
			<rect x="84.912" y="397.803" fill="#BE242A" width="338.432" height="13.639"/>
			<path fill="#BE242A" d="M106.46,388.553c0,0,211.916-63.258,252.529-278.007l-6.797-1.997l13.623-11.748l5.533,15.604
				l-6.477-1.006C364.872,111.398,340.625,309.416,106.46,388.553z"/>
			<rect x="376.208" y="141.771" fill="#BE242A" width="47.137" height="250.196"/>
			<rect x="317.69" y="246.098" fill="#BE242A" width="47.135" height="145.869"/>
			<rect x="259.004" y="319.031" fill="#BE242A" width="47.133" height="72.936"/>
			<rect x="201.461" y="360.238" fill="#BE242A" width="47.135" height="31.729"/>
			<rect x="143.918" y="380.721" fill="#BE242A" width="47.135" height="11.246"/>
		</g>
	</g>
</g>
</svg>
